<svg width="26" height="26" viewBox="0 0 26 26" fill="none" xmlns="http://www.w3.org/2000/svg">
<path d="M5.12676 22.4426C6.65804 22.4426 7.8994 21.2013 7.8994 19.67C7.8994 18.1387 6.65804 16.8973 5.12676 16.8973C3.59548 16.8973 2.35413 18.1387 2.35413 19.67C2.35413 21.2013 3.59548 22.4426 5.12676 22.4426Z" fill="#909BA6"/>
<path d="M22.9659 19.9839C24.2949 19.9839 25.3723 18.9065 25.3723 17.5775C25.3723 16.2484 24.2949 15.171 22.9659 15.171C21.6368 15.171 20.5594 16.2484 20.5594 17.5775C20.5594 18.9065 21.6368 19.9839 22.9659 19.9839Z" fill="#C8D2DC"/>
<path d="M20.7686 7.84707C21.8665 7.84707 22.7565 6.95704 22.7565 5.85914C22.7565 4.76124 21.8665 3.87122 20.7686 3.87122C19.6707 3.87122 18.7806 4.76124 18.7806 5.85914C18.7806 6.95704 19.6707 7.84707 20.7686 7.84707Z" fill="#E9EDF1"/>
<path d="M2.94239 15.6747C4.56743 15.6747 5.88479 14.3894 5.88479 12.804C5.88479 11.2186 4.56743 9.93335 2.94239 9.93335C1.31735 9.93335 0 11.2186 0 12.804C0 14.3894 1.31735 15.6747 2.94239 15.6747Z" fill="#7E8B96"/>
<path d="M11.3951 25.9999C12.8724 25.9999 14.07 24.833 14.07 23.3934C14.07 21.9539 12.8724 20.7869 11.3951 20.7869C9.91782 20.7869 8.72021 21.9539 8.72021 23.3934C8.72021 24.833 9.91782 25.9999 11.3951 25.9999Z" fill="#A2ABB8"/>
<path d="M18.2695 24.858C19.673 24.858 20.8107 23.7502 20.8107 22.3837C20.8107 21.0172 19.673 19.9094 18.2695 19.9094C16.8661 19.9094 15.7284 21.0172 15.7284 22.3837C15.7284 23.7502 16.8661 24.858 18.2695 24.858Z" fill="#B9C3CD"/>
<path d="M6.12555 9.008C7.82443 9.008 9.20165 7.66367 9.20165 6.00534C9.20165 4.34702 7.82443 3.00269 6.12555 3.00269C4.42666 3.00269 3.04944 4.34702 3.04944 6.00534C3.04944 7.66367 4.42666 9.008 6.12555 9.008Z" fill="#5F6C75"/>
<path d="M23.7263 13.5563C24.982 13.5563 26 12.5572 26 11.3248C26 10.0923 24.982 9.09326 23.7263 9.09326C22.4706 9.09326 21.4526 10.0923 21.4526 11.3248C21.4526 12.5572 22.4706 13.5563 23.7263 13.5563Z" fill="#DCE6EB"/>
<path d="M13.7586 6.48692C15.5499 6.48692 17.0021 5.03477 17.0021 3.24346C17.0021 1.45215 15.5499 0 13.7586 0C11.9673 0 10.5151 1.45215 10.5151 3.24346C10.5151 5.03477 11.9673 6.48692 13.7586 6.48692Z" fill="#4E5A61"/>
</svg>
