<svg width="2011" height="1473" viewBox="0 0 2011 1473" fill="none" xmlns="http://www.w3.org/2000/svg">
<path d="M845.38 158.105L903.376 216.102C943.664 256.389 1008.97 256.389 1049.03 216.102L1082.24 182.897C1089.32 175.814 1100.61 175.814 1107.69 182.897L1107.91 183.119C1115.22 190.424 1115.22 202.156 1107.91 209.461C1096.85 220.529 1019.81 297.563 1002.32 315.05C965.579 351.796 965.579 411.342 1002.32 448.088C1039.07 484.834 1098.62 484.834 1135.36 448.088L1457.67 125.786L1528.5 135.526L1411.18 252.848C1360.05 303.982 1360.05 386.993 1411.18 438.127C1462.31 489.262 1545.32 489.262 1596.46 438.127L1775.76 258.824C1783.51 251.077 1796.13 251.077 1803.88 258.824C1811.62 266.572 1811.62 279.19 1803.88 286.937L1538.68 552.35C1509.69 581.348 1509.69 628.055 1538.68 657.054C1567.68 686.052 1614.39 686.052 1643.39 657.054L1827.34 473.102C1835.75 464.691 1849.25 464.691 1857.44 473.102C1865.86 481.514 1865.86 495.017 1857.44 503.208L1854.12 506.528C1793.03 567.624 1793.03 666.572 1854.12 727.668L1991.37 864.912V69.5602" fill="#91CFF2"/>
<path d="M712.254 169.308C719.391 90.2904 661.121 20.4476 582.103 13.3101C503.085 6.17254 433.242 64.4431 426.104 143.461C418.967 222.479 477.237 292.322 556.255 299.459C635.273 306.597 705.116 248.326 712.254 169.308Z" fill="#FFCF54"/>
<path d="M1749.64 1353.24C1799.4 1353.24 1839.74 1312.9 1839.74 1263.14C1839.74 1213.38 1799.4 1173.05 1749.64 1173.05C1699.88 1173.05 1659.55 1213.38 1659.55 1263.14C1659.55 1312.9 1699.88 1353.24 1749.64 1353.24Z" fill="#FFCF54"/>
<path d="M807.527 252.405C761.926 252.405 724.959 289.372 724.959 334.973C724.959 380.573 761.926 417.54 807.527 417.54C853.127 417.54 890.095 380.573 890.095 334.973C890.095 289.372 853.127 252.405 807.527 252.405ZM807.527 401.381C770.781 401.381 741.118 371.719 741.118 334.973C741.118 298.448 770.781 268.564 807.527 268.564C844.051 268.564 873.935 298.227 873.935 334.973C873.935 371.719 844.273 401.381 807.527 401.381Z" fill="#91CFF2"/>
<path d="M1842.55 844.033C1862.43 835.799 1871.87 813.008 1863.64 793.129C1855.41 773.249 1832.61 763.809 1812.74 772.044C1792.86 780.278 1783.42 803.069 1791.65 822.948C1799.88 842.828 1822.68 852.268 1842.55 844.033Z" fill="#FFCF54"/>
<path d="M772.33 911.619C782.6 911.619 790.925 903.294 790.925 893.025C790.925 882.756 782.6 874.431 772.33 874.431C762.061 874.431 753.736 882.756 753.736 893.025C753.736 903.294 762.061 911.619 772.33 911.619Z" fill="#FFCF54"/>
<path d="M812.176 871.774C822.445 871.774 830.77 863.449 830.77 853.18C830.77 842.911 822.445 834.586 812.176 834.586C801.906 834.586 793.581 842.911 793.581 853.18C793.581 863.449 801.906 871.774 812.176 871.774Z" fill="#FFCF54"/>
<path d="M309.226 650.476C334.847 624.855 334.847 583.316 309.226 557.695C283.605 532.075 242.066 532.075 216.446 557.695C190.825 583.316 190.825 624.855 216.446 650.476C242.066 676.096 283.605 676.096 309.226 650.476Z" fill="#FFCF54"/>
<path d="M262.313 851.631L443.83 670.114C484.56 629.384 550.526 629.384 591.035 670.114C631.766 710.845 631.766 776.81 591.035 817.319L508.467 899.887C490.537 917.818 490.537 946.595 508.467 964.525C526.398 982.455 555.175 982.455 573.105 964.525L591.035 946.595C627.781 909.849 687.328 909.849 724.074 946.595C760.82 983.341 760.82 1042.89 724.074 1079.63L650.36 1153.35C642.391 1161.32 642.391 1174.15 650.36 1182.12C658.329 1190.09 671.168 1190.09 679.137 1182.12L858.883 1002.38C890.537 970.723 942.115 970.723 973.769 1002.38C1005.42 1034.03 1005.42 1085.61 973.769 1117.26L925.291 1165.96C918.429 1172.83 918.429 1184.12 925.291 1191.2C932.153 1198.06 943.443 1198.06 950.526 1191.2L954.511 1187.21C1039.51 1102.21 1177.64 1102.21 1262.65 1187.21L1345.66 1270.23H0C0 1270 278.473 867.79 262.313 851.631Z" fill="#B9E6FF"/>
<path d="M1588.71 1062.37C1592.69 1058.38 1598.89 1058.38 1602.88 1062.37L1632.98 1092.47C1636.97 1096.46 1636.97 1102.65 1632.98 1106.64C1629 1110.62 1622.8 1110.62 1618.81 1106.64L1588.71 1076.53C1584.95 1072.55 1584.95 1066.35 1588.71 1062.37Z" fill="#31346B"/>
<path d="M1632.98 1062.36C1636.97 1066.35 1636.97 1072.55 1632.98 1076.53L1602.88 1106.64C1598.89 1110.62 1592.7 1110.62 1588.71 1106.64C1584.73 1102.65 1584.73 1096.45 1588.71 1092.47L1618.82 1062.36C1622.8 1058.6 1629 1058.6 1632.98 1062.36Z" fill="#31346B"/>
<path d="M751.965 585.775C754.4 583.34 758.606 583.34 761.041 585.775L780.521 605.255C782.956 607.69 782.956 611.896 780.521 614.331C778.086 616.766 773.88 616.766 771.445 614.331L751.965 594.851C749.53 592.416 749.53 588.432 751.965 585.775Z" fill="#7477AB"/>
<path d="M780.741 585.775C783.176 588.21 783.176 592.416 780.741 594.851L761.261 614.331C758.826 616.766 754.62 616.766 752.185 614.331C749.75 611.896 749.75 607.69 752.185 605.255L771.665 585.775C774.1 583.34 778.084 583.34 780.741 585.775Z" fill="#7477AB"/>
<path d="M1179.86 446.317C1203.21 446.317 1222.14 427.388 1222.14 404.037C1222.14 380.687 1203.21 361.757 1179.86 361.757C1156.51 361.757 1137.58 380.687 1137.58 404.037C1137.58 427.388 1156.51 446.317 1179.86 446.317Z" fill="#7477AB"/>
<path d="M234.201 1447.09C243.37 1447.09 250.803 1439.66 250.803 1430.49C250.803 1421.32 243.37 1413.89 234.201 1413.89C225.031 1413.89 217.598 1421.32 217.598 1430.49C217.598 1439.66 225.031 1447.09 234.201 1447.09Z" fill="#31346B"/>
<path d="M415.717 409.571C428.676 409.571 439.181 399.066 439.181 386.107C439.181 373.148 428.676 362.643 415.717 362.643C402.758 362.643 392.252 373.148 392.252 386.107C392.252 399.066 402.758 409.571 415.717 409.571Z" fill="#31346B"/>
<path d="M1389.71 529.771C1393.62 529.771 1396.79 526.599 1396.79 522.687C1396.79 518.775 1393.62 515.604 1389.71 515.604C1385.8 515.604 1382.62 518.775 1382.62 522.687C1382.62 526.599 1385.8 529.771 1389.71 529.771Z" fill="#7477AB"/>
<path d="M1389.71 566.295C1393.62 566.295 1396.79 563.124 1396.79 559.212C1396.79 555.3 1393.62 552.128 1389.71 552.128C1385.8 552.128 1382.62 555.3 1382.62 559.212C1382.62 563.124 1385.8 566.295 1389.71 566.295Z" fill="#7477AB"/>
<path d="M1425.35 529.771C1429.26 529.771 1432.43 526.599 1432.43 522.687C1432.43 518.775 1429.26 515.604 1425.35 515.604C1421.43 515.604 1418.26 518.775 1418.26 522.687C1418.26 526.599 1421.43 529.771 1425.35 529.771Z" fill="#7477AB"/>
<path d="M1425.35 566.295C1429.26 566.295 1432.43 563.124 1432.43 559.212C1432.43 555.3 1429.26 552.128 1425.35 552.128C1421.43 552.128 1418.26 555.3 1418.26 559.212C1418.26 563.124 1421.43 566.295 1425.35 566.295Z" fill="#7477AB"/>
<path d="M394.909 463.805C398.821 463.805 401.993 460.634 401.993 456.722C401.993 452.809 398.821 449.638 394.909 449.638C390.997 449.638 387.825 452.809 387.825 456.722C387.825 460.634 390.997 463.805 394.909 463.805Z" fill="#31346B"/>
<path d="M394.909 500.33C398.821 500.33 401.993 497.158 401.993 493.246C401.993 489.334 398.821 486.163 394.909 486.163C390.997 486.163 387.825 489.334 387.825 493.246C387.825 497.158 390.997 500.33 394.909 500.33Z" fill="#31346B"/>
<path d="M430.327 463.805C434.239 463.805 437.41 460.634 437.41 456.722C437.41 452.809 434.239 449.638 430.327 449.638C426.415 449.638 423.243 452.809 423.243 456.722C423.243 460.634 426.415 463.805 430.327 463.805Z" fill="#31346B"/>
<path d="M430.327 500.33C434.239 500.33 437.41 497.158 437.41 493.246C437.41 489.334 434.239 486.163 430.327 486.163C426.415 486.163 423.243 489.334 423.243 493.246C423.243 497.158 426.415 500.33 430.327 500.33Z" fill="#31346B"/>
<path d="M322.967 463.805C326.88 463.805 330.051 460.634 330.051 456.722C330.051 452.81 326.88 449.638 322.967 449.638C319.055 449.638 315.884 452.81 315.884 456.722C315.884 460.634 319.055 463.805 322.967 463.805Z" fill="#31346B"/>
<path d="M322.966 500.33C326.879 500.33 330.05 497.158 330.05 493.246C330.05 489.334 326.879 486.163 322.966 486.163C319.054 486.163 315.883 489.334 315.883 493.246C315.883 497.158 319.054 500.33 322.966 500.33Z" fill="#31346B"/>
<path d="M358.384 463.805C362.296 463.805 365.468 460.634 365.468 456.722C365.468 452.809 362.296 449.638 358.384 449.638C354.472 449.638 351.301 452.809 351.301 456.722C351.301 460.634 354.472 463.805 358.384 463.805Z" fill="#31346B"/>
<path d="M358.384 500.33C362.296 500.33 365.468 497.158 365.468 493.246C365.468 489.334 362.296 486.163 358.384 486.163C354.472 486.163 351.301 489.334 351.301 493.246C351.301 497.158 354.472 500.33 358.384 500.33Z" fill="#31346B"/>
<path d="M1746.54 1072.99C1750.45 1072.99 1753.63 1069.82 1753.63 1065.91C1753.63 1062 1750.45 1058.82 1746.54 1058.82C1742.63 1058.82 1739.46 1062 1739.46 1065.91C1739.46 1069.82 1742.63 1072.99 1746.54 1072.99Z" fill="#31346B"/>
<path d="M1753.63 1102.43C1753.63 1106.2 1750.53 1109.52 1746.54 1109.52C1742.78 1109.52 1739.46 1106.42 1739.46 1102.43C1739.46 1098.67 1742.56 1095.35 1746.54 1095.35C1750.53 1095.35 1753.63 1098.67 1753.63 1102.43Z" fill="#31346B"/>
<path d="M1782.18 1072.99C1786.09 1072.99 1789.27 1069.82 1789.27 1065.91C1789.27 1062 1786.09 1058.82 1782.18 1058.82C1778.27 1058.82 1775.1 1062 1775.1 1065.91C1775.1 1069.82 1778.27 1072.99 1782.18 1072.99Z" fill="#31346B"/>
<path d="M1789.27 1102.43C1789.27 1106.2 1786.17 1109.52 1782.18 1109.52C1778.42 1109.52 1775.1 1106.42 1775.1 1102.43C1775.1 1098.67 1778.2 1095.35 1782.18 1095.35C1785.94 1095.35 1789.27 1098.67 1789.27 1102.43Z" fill="#31346B"/>
<path d="M1674.6 1072.99C1678.51 1072.99 1681.68 1069.82 1681.68 1065.91C1681.68 1062 1678.51 1058.83 1674.6 1058.83C1670.69 1058.83 1667.52 1062 1667.52 1065.91C1667.52 1069.82 1670.69 1072.99 1674.6 1072.99Z" fill="#31346B"/>
<path d="M1681.68 1102.43C1681.68 1106.2 1678.58 1109.52 1674.6 1109.52C1670.84 1109.52 1667.52 1106.42 1667.52 1102.43C1667.52 1098.67 1670.62 1095.35 1674.6 1095.35C1678.58 1095.35 1681.68 1098.67 1681.68 1102.43Z" fill="#31346B"/>
<path d="M1710.24 1072.99C1714.15 1072.99 1717.32 1069.82 1717.32 1065.91C1717.32 1062 1714.15 1058.82 1710.24 1058.82C1706.33 1058.82 1703.16 1062 1703.16 1065.91C1703.16 1069.82 1706.33 1072.99 1710.24 1072.99Z" fill="#31346B"/>
<path d="M1717.32 1102.43C1717.32 1106.2 1714.22 1109.52 1710.24 1109.52C1706.48 1109.52 1703.16 1106.42 1703.16 1102.43C1703.16 1098.67 1706.25 1095.35 1710.24 1095.35C1714 1095.35 1717.32 1098.67 1717.32 1102.43Z" fill="#31346B"/>
<path d="M1890.43 1072.99C1894.34 1072.99 1897.51 1069.82 1897.51 1065.91C1897.51 1062 1894.34 1058.82 1890.43 1058.82C1886.52 1058.82 1883.34 1062 1883.34 1065.91C1883.34 1069.82 1886.52 1072.99 1890.43 1072.99Z" fill="#31346B"/>
<path d="M1897.51 1102.43C1897.51 1106.2 1894.41 1109.52 1890.43 1109.52C1886.66 1109.52 1883.34 1106.42 1883.34 1102.43C1883.34 1098.67 1886.44 1095.35 1890.43 1095.35C1894.19 1095.35 1897.51 1098.67 1897.51 1102.43Z" fill="#31346B"/>
<path d="M1932.93 1065.91C1932.93 1069.67 1929.83 1072.99 1925.85 1072.99C1922.08 1072.99 1918.76 1069.89 1918.76 1065.91C1918.76 1062.15 1921.86 1058.82 1925.85 1058.82C1929.83 1058.82 1932.93 1062.15 1932.93 1065.91Z" fill="#31346B"/>
<path d="M1932.93 1102.43C1932.93 1106.2 1929.83 1109.52 1925.85 1109.52C1922.08 1109.52 1918.76 1106.42 1918.76 1102.43C1918.76 1098.67 1921.86 1095.35 1925.85 1095.35C1929.83 1095.35 1932.93 1098.67 1932.93 1102.43Z" fill="#31346B"/>
<path d="M1818.48 1072.99C1822.4 1072.99 1825.57 1069.82 1825.57 1065.91C1825.57 1062 1822.4 1058.82 1818.48 1058.82C1814.57 1058.82 1811.4 1062 1811.4 1065.91C1811.4 1069.82 1814.57 1072.99 1818.48 1072.99Z" fill="#31346B"/>
<path d="M1825.35 1102.43C1825.35 1106.2 1822.25 1109.52 1818.26 1109.52C1814.5 1109.52 1811.18 1106.42 1811.18 1102.43C1811.18 1098.67 1814.28 1095.35 1818.26 1095.35C1822.25 1095.35 1825.35 1098.67 1825.35 1102.43Z" fill="#31346B"/>
<path d="M1853.9 1072.99C1857.82 1072.99 1860.99 1069.82 1860.99 1065.91C1860.99 1062 1857.82 1058.82 1853.9 1058.82C1849.99 1058.82 1846.82 1062 1846.82 1065.91C1846.82 1069.82 1849.99 1072.99 1853.9 1072.99Z" fill="#31346B"/>
<path d="M1860.99 1102.43C1860.99 1106.2 1857.89 1109.52 1853.9 1109.52C1850.14 1109.52 1846.82 1106.42 1846.82 1102.43C1846.82 1098.67 1849.92 1095.35 1853.9 1095.35C1857.89 1095.35 1860.99 1098.67 1860.99 1102.43Z" fill="#31346B"/>
<path d="M808.412 1068.56C817.948 1068.56 825.679 1060.83 825.679 1051.3C825.679 1041.76 817.948 1034.03 808.412 1034.03C798.877 1034.03 791.146 1041.76 791.146 1051.3C791.146 1060.83 798.877 1068.56 808.412 1068.56Z" fill="#31346B"/>
<path d="M1737.91 581.348C1747.45 581.348 1755.18 573.618 1755.18 564.082C1755.18 554.546 1747.45 546.816 1737.91 546.816C1728.37 546.816 1720.64 554.546 1720.64 564.082C1720.64 573.618 1728.37 581.348 1737.91 581.348Z" fill="#31346B"/>
<path d="M1723.52 456.279L2005.09 174.707" stroke="white" stroke-width="3" stroke-miterlimit="10" stroke-linecap="round"/>
<path d="M1220.37 283.617L1367.79 136.19" stroke="white" stroke-width="3" stroke-miterlimit="10" stroke-linecap="round"/>
<path d="M263.863 1079.19L550.083 792.97" stroke="white" stroke-width="3" stroke-miterlimit="10" stroke-linecap="round"/>
<path d="M574.876 1429.83L831.434 1173.27" stroke="white" stroke-width="3" stroke-miterlimit="10" stroke-linecap="round"/>
<path d="M123.298 1138.74L379.856 882.178" stroke="white" stroke-width="3" stroke-miterlimit="10" stroke-linecap="round"/>
<path d="M655.894 634.032C675.088 634.032 690.648 618.472 690.648 599.278C690.648 580.084 675.088 564.524 655.894 564.524C636.7 564.524 621.14 580.084 621.14 599.278C621.14 618.472 636.7 634.032 655.894 634.032Z" fill="#B9E6FF"/>
<path d="M1303.38 440.341C1313.52 440.341 1321.75 432.115 1321.75 421.968C1321.75 411.821 1313.52 403.595 1303.38 403.595C1293.23 403.595 1285 411.821 1285 421.968C1285 432.115 1293.23 440.341 1303.38 440.341Z" fill="#91CFF2"/>
<path d="M1889.32 451.409C1899.47 451.409 1907.69 443.183 1907.69 433.036C1907.69 422.889 1899.47 414.663 1889.32 414.663C1879.17 414.663 1870.95 422.889 1870.95 433.036C1870.95 443.183 1879.17 451.409 1889.32 451.409Z" fill="#F7F3EA"/>
<path d="M456.89 1069.23C481.952 1069.23 502.269 1048.91 502.269 1023.85C502.269 998.787 481.952 978.47 456.89 978.47C431.828 978.47 411.511 998.787 411.511 1023.85C411.511 1048.91 431.828 1069.23 456.89 1069.23Z" fill="white"/>
<path d="M1361.59 1108.41C1276.15 1108.41 1206.64 1177.92 1206.64 1263.36C1206.64 1348.81 1276.15 1418.32 1361.59 1418.32C1447.04 1418.32 1516.55 1348.81 1516.55 1263.36C1516.55 1177.92 1447.04 1108.41 1361.59 1108.41ZM1361.59 1387.55C1292.97 1387.55 1237.19 1331.98 1237.19 1263.14C1237.19 1194.3 1292.75 1138.74 1361.59 1138.74C1430.22 1138.74 1486 1194.3 1486 1263.14C1486 1331.98 1430.22 1387.55 1361.59 1387.55Z" fill="#91CFF2"/>
<path d="M361.041 1279.08C364.14 1277.97 482.568 1158.44 527.726 1112.62C537.245 1102.88 552.961 1102.88 562.48 1112.62C571.998 1122.13 571.998 1137.85 562.48 1147.37L525.291 1184.56C520.421 1189.43 520.421 1197.18 525.291 1202.05C530.161 1206.92 537.909 1206.92 542.779 1202.05L558.274 1186.55C568.899 1175.93 585.944 1175.93 596.348 1186.55C606.974 1197.18 606.974 1214.22 596.348 1224.62C591.921 1229.05 591.921 1236.36 596.348 1240.78L639.956 1284.39H357.056" fill="#91CFF2"/>
<path d="M1690.32 135.526L1555.51 270.335C1542.89 282.953 1542.89 303.097 1555.51 315.714C1568.13 328.332 1588.27 328.332 1600.89 315.714L1672.83 243.772C1677.04 239.566 1684.12 239.566 1688.32 243.772C1692.53 247.978 1692.53 255.061 1688.32 259.267L1663.75 283.838C1656.89 290.7 1656.89 301.547 1663.75 308.409C1670.62 315.271 1681.46 315.271 1688.32 308.409L1754.29 242.444C1769.12 227.612 1791.48 224.735 1808.97 234.032C1813.17 236.245 1816.94 238.902 1820.48 242.444L1822.25 244.214L1950.64 115.825C1951.08 115.603 1690.32 134.198 1690.32 135.526Z" fill="#B9E6FF"/>
<path d="M89.8728 1471L410.183 1150.69" stroke="#31346B" stroke-width="3" stroke-miterlimit="10" stroke-linecap="round"/>
<path d="M1323.08 66.4611L1063.64 325.897" stroke="#31346B" stroke-width="3" stroke-miterlimit="10" stroke-linecap="round"/>
<path d="M1830.88 252.183L1820.7 242.222C1820.7 242.222 1929.83 118.924 1932.27 116.267C1934.92 113.611 2010.85 124.458 2010.85 124.458L1889.76 250.855C1873.83 267.679 1847.26 268.121 1830.88 252.183Z" fill="#B9E6FF"/>
</svg>
